<?xml version="1.0" encoding="utf-8"?>
<!-- Generator: Adobe Illustrator 19.1.0, SVG Export Plug-In . SVG Version: 6.00 Build 0)  -->
<svg version="1.1" id="Layer_1" xmlns="http://www.w3.org/2000/svg" xmlns:xlink="http://www.w3.org/1999/xlink" x="0px" y="0px"
	 viewBox="0 0 110 110" style="enable-background:new 0 0 110 110;" xml:space="preserve">
<style type="text/css">
	.st0{fill:#2D254D;}
	.st1{fill:#E53A2E;}
	.st2{fill:#C5D20B;}
	.st3{fill:#1BBAEB;}
	.st4{fill:#227731;}
	.st5{fill:#AC2321;}
</style>
<g>
	<g>
		<path class="st0" d="M39.4,66.5c-0.6-0.9-1.3-1.7-1.9-2.6c-0.8,0.2-1.3-0.2-1.9-0.6c-0.7-0.5-0.7-1.2-0.2-1.9
			c0.3-0.3,0.6-0.5,0.9-0.7c0-0.5,0.1-0.9,0.1-1.4c0-0.2-0.1-0.3-0.1-0.4c-0.5-0.8-1-1.6-1.5-2.5c-0.2,0-0.3,0.2-0.4,0.3
			c-1.7,1.8-3,3.9-3.6,6.4c-0.3,1.1-0.6,2.3-1.1,3.4c-0.3,0.7-0.6,1.3-1.1,1.8c-1.7,1.8-4.3,1.5-5.7-0.5c-0.7-1.1-1-2.3-1-3.6
			c-0.1-3.4,0.2-6.8,1.3-10.1c0-0.1,0-0.2,0.1-0.3c0,0,0,0,0-0.1c-0.1-0.1-0.2,0-0.3,0.1c-0.4,0.4-0.7,0.8-1,1.3
			c-0.3,0.6-0.7,1.1-1.1,1.5c-0.9,0.8-2,1.3-3.3,1.1c-0.9-0.1-1.5-0.6-2.1-1.3c-0.9-1.2-1.2-2.6-1.1-4c0.1-1.8,0.8-3.4,1.7-4.9
			c1-1.7,2.3-3.3,3.7-4.7c0.1-0.1,0.2-0.2,0.3-0.4c-0.1,0-0.3,0-0.4,0c-0.9,0.2-1.8,0.1-2.6-0.3c-1.6-0.7-2.1-2.2-2-3.5
			c0.1-1.1,0.5-2.1,1.2-2.9c0.7-0.9,1.5-1.6,2.4-2.2c2.4-1.6,5-2.6,7.8-3.2c0.6-0.1,1.2-0.2,1.9-0.3c0-0.2-0.2-0.2-0.3-0.2
			c-2.4-1.2-2.8-4.1-0.9-6c0.9-0.9,2.1-1.5,3.3-1.8c3.4-0.9,6.8-0.9,10.1,0.2c0.2,0.1,0.3,0.2,0.5,0.1c0,0,0,0.1,0,0.1
			c0,0,0,0,0.1,0c0,0-0.1,0-0.1,0c-0.4-0.6-0.8-1.2-0.9-2c-0.4-1.8,0.3-3.4,2-4.1c1.3-0.6,2.6-0.7,3.9-0.6c3.6,0.4,6.8,1.7,9.5,4.2
			c0.1,0.1,0.1,0.2,0.3,0.2c0.1-0.1,0.1-0.2,0.1-0.3c-0.1-2.3,1.4-4,3.6-4.2c2.5-0.2,4.6,0.7,6.1,2.8c0.8,1.1,1.4,2.2,2,3.4
			c0.1,0.2,0.2,0.4,0.3,0.5c0.2,0,0.2-0.1,0.3-0.2c1.2-1.8,3.3-2.2,5.2-1.1c0.9,0.6,1.6,1.4,2.1,2.4c0.6,1.2,0.9,2.4,1.1,3.7
			c0,0.1,0,0.2,0.1,0.3c0.6-0.1,1.2-0.2,1.8-0.1c1.1,0.2,2,0.8,2.6,1.7c0.6,0.9,0.8,2,0.9,3.1c0,0.4,0,0.8,0,1.1
			c0.1,0.2,0.2,0.2,0.3,0.2c1.2,0.1,2.1,0.7,2.6,1.8c0.3,0.7,0.5,1.4,0.5,2.1c0,0.5,0,1,0,1.4c0.1,0.1,0.1,0.2,0.2,0.2
			c1.6,0.8,2.3,2.2,2,4c-0.1,0.5-0.2,1-0.4,1.5c1.7,0.2,2.8,1.1,3.3,2.8c0.4,1.6,0,3-1.2,4.2c1.6,0.9,2.5,2.2,2.3,4.1
			c-0.2,1.8-1.3,3-3,3.6c0,0.2,0.1,0.2,0.2,0.3c0.3,0.4,0.7,0.7,1,1.1c1,1.2,1.5,2.5,1.2,4.1c-0.2,1.1-0.8,2-1.7,2.6
			c-0.1,0.1-0.3,0.2-0.4,0.3c0.4,0.9,0.7,1.8,1,2.7c0.3,1.2,0.6,2.4,0.5,3.7c0,0.4-0.1,0.9-0.2,1.3c-0.4,1.3-1.3,2.1-2.7,2.3
			c-0.2,0-0.3,0-0.5,0.1c0,0.6,0.1,1.2,0,1.8c-0.1,0.6-0.4,1.1-0.9,1.5c0.1,0.2,0.3,0.2,0.4,0.2c2,0.7,3.1,2.1,3.5,4.1
			c0.1,0.3,0.2,0.5,0.4,0.6c0.6,0.3,1.2,0.8,1.6,1.3c1.4,1.5,1.6,3.6,0.5,5.4c-1.3,2-3.1,2.8-5.4,2.6c-0.2,0-0.4,0-0.6,0.2
			c-1.1,1.3-2.1,2.5-3.2,3.8c0.1,0.2,0.3,0.2,0.4,0.2c1,0.3,2,0.6,2.9,1c0.5,0.2,0.9,0.5,1.3,0.8c0.6,0.6,0.6,1.2,0,1.8
			c-0.4,0.4-0.8,0.7-1.3,0.9c-1.3,0.7-2.7,1.1-4.1,1.4c-2.7,0.7-5.4,1.1-8.1,1.5c-3,0.4-6,0.7-8.9,0.8c-4,0.2-8,0.3-12,0.3
			c-2.6,0-5.3-0.1-7.9-0.3c-4-0.3-8.1-0.7-12-1.5c-1.2-0.3-2.4-0.6-3.5-1.1c-0.5-0.2-1-0.5-1.4-0.9c-0.7-0.6-0.7-1.2,0-1.9
			c0.3-0.3,0.7-0.5,1-0.7c0.2-0.1,0.3-0.1,0.5-0.3c-0.4-0.1-0.8-0.2-1.1-0.3c-1.1-0.3-2.2-0.6-3.1-1.2c-0.2-0.1-0.4-0.1-0.6-0.1
			c-0.8,0.2-1.7,0.2-2.5,0c-2.3-0.6-3.5-2.7-2.7-5.1c0.2-0.7,0.2-1.1-0.2-1.7c-2-3.5,1-6.7,3.5-7c0.2,0,0.3,0,0.5-0.1
			c0-0.3,0.1-0.5,0.1-0.8c0.1-0.3,0.2-0.6,0.3-0.9c1.2-2.3,4.3-3.6,6.8-2.8c0.7,0.2,1.3,0.5,1.9,0.9c1.1,0.8,1.7,1.9,1.5,3.3
			c0,0.2,0,0.4,0.1,0.6c0.3,0.9,0.8,1.8,1.4,2.6c0.1,0.1,0.2,0.2,0.3,0.2c0.5,0,0.9-0.1,1.4-0.1c0-0.2-0.1-0.3-0.2-0.4
			c-1.1-1.4-1.6-3.1-1.8-4.8c-0.1-1.5,0-3,0.5-4.4c0.7-1.6,1.7-2.9,3.4-3.3c1-0.3,2-0.3,3-0.1c0.5,0.1,1,0.3,1.5,0.7
			c1.1-0.6,2.5-0.5,3.7-1c-0.3-0.1-0.5,0-0.7,0c-3.3,0.4-6.4,0-9.4-1.4c-0.7-0.3-1.5-0.5-2.3-0.5c-2.3,0-4-2-3.7-4.3
			c0.1-0.8,0.5-1.6,1.1-2.1c1.9-1.5,4-1.9,6.2-0.7C39.2,66.6,39.3,66.6,39.4,66.5c-0.1,0.1,0,0.2,0.1,0.1
			C39.5,66.6,39.4,66.6,39.4,66.5z M74.1,33.9C74.1,33.9,74.1,33.9,74.1,33.9c-0.1-0.4,0-0.7,0.1-1c0.4-1.7,0.7-3.5,0.5-5.3
			c-0.1-1.2-0.4-2.3-0.9-3.4c-0.3-0.6-0.7-1.1-1.2-1.6c-1.3-1-2.7-0.5-3.2,1.1c-0.1,0.4-0.1,0.9-0.2,1.4c-0.2,1.5-0.4,3-1,4.4
			c-0.1,0.2-0.1,0.4-0.3,0.6c-0.1-0.1-0.1-0.2-0.1-0.3c-0.1-0.7-0.2-1.5-0.3-2.2c-0.5-2.7-1.4-5.2-2.8-7.4c-0.5-0.7-1-1.4-1.7-1.9
			c-1.1-0.8-2.4-1.1-3.7-0.8c-0.9,0.2-1.4,0.9-1.5,1.8c0,0.5,0,0.9,0.2,1.4c0.3,0.7,0.5,1.5,0.6,2.3c0.3,1.7,0.6,3.4,0.5,5.1
			c0,0.1,0,0.3-0.1,0.4c-0.1-0.2-0.2-0.3-0.2-0.5c-0.5-1-1-2-1.5-2.9c-1-1.7-2.2-3.3-3.8-4.5c-2.5-2.1-5.3-2.9-8.5-3.1
			c-0.7,0-1.5,0.1-2.1,0.5c-1,0.6-1.2,1.7-0.6,2.6c0.1,0.2,0.3,0.4,0.4,0.5c0.3,0.3,0.6,0.6,0.9,0.8c2,1.8,3.3,3.9,4.2,6.5
			c0,0.1,0.1,0.2,0,0.4c-0.2-0.2-0.3-0.3-0.5-0.4c-1.2-1-2.4-1.9-3.7-2.7c-3.5-2-7.2-2.8-11.2-2.1c-1,0.2-2.1,0.4-3,1
			c-0.4,0.2-0.8,0.5-1.1,0.9c-0.8,1-0.5,2.1,0.6,2.7c0.4,0.2,0.8,0.3,1.2,0.4c1.7,0.2,3.3,0.6,4.9,1.3c1.3,0.6,2.6,1.4,3.6,2.4
			c0.1,0.1,0.3,0.2,0.2,0.4c-0.1,0-0.1,0-0.2,0c-0.1,0-0.3,0-0.4-0.1c-3-0.6-6-0.8-9-0.5c-3.3,0.3-6.4,1.4-9.2,3.2
			c-0.8,0.5-1.4,1-2,1.7c-0.4,0.4-0.7,0.9-0.9,1.5c-0.5,1.4,0.4,2.5,1.8,2.4c0.3,0,0.6-0.1,0.9-0.2c0.7-0.2,1.4-0.5,2.1-0.7
			c2.2-0.6,4.5-0.7,6.8-0.5c0.2,0,0.5,0.1,0.8,0.1c-0.2,0.2-0.4,0.2-0.6,0.3c-4.6,1.5-8.2,4.4-10.8,8.6c-0.8,1.2-1.3,2.5-1.5,3.9
			c-0.1,0.7-0.1,1.4,0.1,2.1c0.2,0.7,0.6,1.3,1.3,1.5c0.8,0.2,1.3-0.1,1.8-0.7c0.2-0.2,0.4-0.4,0.5-0.7c0.7-1.2,1.6-2.2,2.7-3
			c1.6-1.3,3.4-2.2,5.2-2.9c0.1,0,0.1,0,0.2,0c0,0.2-0.2,0.3-0.3,0.4c-1.6,2.1-2.7,4.5-3.4,7.1c-0.7,2.6-0.8,5.3-0.8,8
			c0,0.6,0.1,1.1,0.3,1.7c0.1,0.4,0.2,0.7,0.4,1c0.7,1,1.9,1.2,2.7,0.3c0.3-0.3,0.5-0.7,0.7-1.2c0.4-1,0.7-2.1,1-3.1
			c1-3.8,3.2-6.8,6.2-9.2c1.6-1.2,3.4-1.3,5.2-0.5c0.2,0.1,0.4,0.3,0.5,0.5c0.1,0.3,0.1,0.5-0.1,0.7c-0.2,0.2-0.4,0.2-0.6,0.1
			c-0.8-0.2-1.6-0.2-2.4-0.2c-0.5,0.1-1,0.2-1.4,0.5c0.1,0.8,0.4,1.4,0.9,2c0.8-0.4,1.6-0.7,2.5-0.6c2.1,0.3,3.6,1.5,4.4,3.5
			c0.5,1.3,0.6,2.7,0.3,4c0,0.1-0.1,0.2,0,0.4c0.2,0,0.5,0,0.7,0c0.4,0,0.7,0.3,0.7,0.7c0,0.4-0.2,0.7-0.6,0.7c-0.2,0-0.4,0-0.5,0
			c-0.8,0.1-1.6,0.3-2.1,1c-0.5,0.6-0.9,1.3-1.6,1.7c0.2,0.4,0.4,0.8,0.5,1.2c0.3,1.2-0.1,2.2-1.1,2.9c-0.5,0.4-1,0.6-1.6,0.8
			c0.1,0.2,0.4,0.2,0.5,0.3c1.7,0.6,3.5,0.9,5.3,0.9c4.2,0.1,7.9-1.1,11.3-3.6c1.3-0.9,2.3-2,3.2-3.3c0.5-0.7,0.9-1.5,1.1-2.4
			c0.1-0.6,0.2-1.2-0.1-1.8c-0.2,0.1-0.4,0.3-0.6,0.4c-0.2,0.1-0.4,0.2-0.5,0c-0.1-0.2-0.1-0.3,0-0.5c0.1-0.2,0.2-0.3,0.4-0.4
			c0.4-0.3,0.8-0.4,1.2-0.4c0.8,0,1.4,0.4,1.7,1.1c0.1,0.1,0.1,0.2,0,0.4c-0.1,0.1-0.2,0.1-0.4,0c-0.2-0.1-0.4-0.3-0.7-0.4
			c-0.1,0.3-0.2,0.6-0.2,0.8c-0.3,1-0.5,2.1-0.8,3.1c-0.4,1.1-0.6,2.3-0.6,3.5c0,0.4,0,0.9,0,1.3c0,0.4-0.1,0.8-0.2,1.2
			c-0.3,1-0.8,1.1-1.6,0.5c-0.5-0.4-1.1-0.8-1.6-1.2C56.2,72.7,56,72.8,56,73c0.7,0.5,1.4,1.1,2.1,1.6c0.1,0.1,0.3,0.2,0.5,0.3
			c0.4,0.2,0.8,0.1,1.1-0.3c0.1-0.2,0.2-0.4,0.3-0.6c0.2-0.5,0.4-1,0.7-1.6c0.3-0.6,0.5-1.2,0.9-1.7c0.3-0.4,0.7-0.8,1.2-0.9
			c0.3-0.1,0.6-0.2,0.9,0c0,0.2-0.1,0.3-0.3,0.4c-0.5,0.3-0.9,0.8-1.3,1.3c-0.4,0.6-0.8,1.2-1.1,1.9c-0.2,0.5-0.5,1-0.7,1.6
			c-0.2,0.4-0.5,0.8-0.9,1c-0.3,0.1-0.5,0.3-0.8,0.4c0,0.2,0,0.5,0.1,0.7c1.5,0.3,2.6,1.4,3.6,2.5c0.8-0.2,1.5-0.7,2.2-1.1
			c0.5-0.3,0.6-0.7,0.5-1.2c-0.3-1.7-0.9-3.3-2.1-4.6c-0.1-0.1-0.2-0.2-0.2-0.3c0.4-0.4,0.9-0.7,1.3-1c0.6,0.8,1.4,1.5,1.9,2.4
			c0.5,0.9,0.7,1.8,0.9,2.8c0.4-0.4,0.4-1,0.8-1.3c0.3,0.4,0.4,0.9,0.3,1.3c-0.3,1.3-0.9,2.4-1.9,3.3c-0.4,0.3-0.8,0.5-1.2,0.7
			c-0.1,0-0.3,0-0.3,0.2c0.9,1.4,0.7,2.9,0.8,4.5c0.1,0,0.2,0,0.2,0c1.6-0.6,2.6-1.7,3.3-3.2c0.5-1.2,0.7-2.5,0.9-3.8
			c0.2-1.7,0.1-3.3-0.1-5c0-0.3-0.1-0.5,0.1-0.8c0.3,0.1,0.5,0.3,0.6,0.5c0.2,0.3,0.3,0.6,0.3,0.9c0.2,2.4,0.4,4.8,0.1,7.2
			c-0.1,1-0.4,2-0.9,2.9c-0.1,0.1-0.2,0.2-0.2,0.4c0.2,0.2,0.5,0.4,0.7,0.7c0.8,0.8,1.2,1.8,1.2,3c0,0.9-0.2,1.8-0.6,2.6
			c-0.1,0.2-0.2,0.5-0.3,0.7c0.8,0.6,1.7,0.5,2.6,0.5c0.2-0.4,0.2-0.9,0.2-1.3c0.1-1.3,0-2.6-0.5-3.8c-0.5-1-0.6-2.2-0.4-3.3
			c0.3-1.7,1.2-2.9,2.8-3.6c0.1,0,0.2,0,0.2-0.1c0,0,0-0.1,0-0.2c-0.1-0.5-0.1-1-0.2-1.4c-0.4-2.4-1.2-4.6-2.7-6.5
			c-0.5-0.7-1.1-1.4-1.8-1.9c-0.3-0.2-0.4-0.5-0.3-0.8c0.1-0.6,0.1-1.1,0.1-1.7c0-0.7,0.2-1.4,0.6-2c0.4-0.6,0.7-1.3,0.8-2.1
			c0.1-0.4,0.1-0.8,0-1.2c-0.2,0.2-0.3,0.3-0.4,0.5c-0.6,0.7-1.2,1.4-1.9,2c-0.4,0.3-0.8,0.7-1.3,0.8c-0.3,0.1-0.7,0.2-1,0.1
			c0-0.1,0-0.2,0-0.2c1-1.2,1.4-2.7,1.6-4.3c0.1-0.8,0-1.6-0.2-2.3c-0.1-0.3-0.2-0.7-0.5-1c-0.3,0.3-0.5,0.6-0.7,0.8
			c-0.6,0.7-1.1,1.4-1.8,1.9c-0.3,0.2-0.5,0.4-0.9,0.5c-0.4-2.2-1.2-4.3-1.6-6.5c-0.4-2.2-0.4-4.4-0.6-6.7c-1.2,2.3-1.6,4.9-2.2,7.5
			c-0.8-0.3-1.4-0.8-2-1.4c-1.2-1.2-1.9-2.7-2.3-4.3c-0.4-1.7-0.5-3.4-0.5-5.2c0-0.2,0.1-0.4-0.1-0.6c-0.2,0.1-0.4,0.2-0.5,0.4
			c-1.1,0.8-2.2,1.7-3.4,2.4c-0.4,0.3-0.9,0.5-1.3,0.8c-0.2,0.1-0.4,0.2-0.6,0.1c-0.1-1.3,0.2-2.6,0.3-4c-0.2,0-0.2,0.2-0.3,0.2
			c-1.4,1.8-2.9,3.4-4.5,4.9c-1.1,1-2.1,2-3.1,3.1c-0.4,0.4-0.8,0.8-1.3,1.1c-0.1-0.3,0-0.6,0-0.8c0.2-0.8,0.5-1.5,0.9-2.2
			c0.4-0.8,0.8-1.6,1.2-2.4c0.1-0.2,0.3-0.5,0.3-0.8c-0.2-0.1-0.3,0-0.4,0.1c-1.2,0.5-2.4,1-3.7,1.6c-1.8,0.8-3.4,1.8-5,2.9
			c-3.9,2.9-6.7,6.6-7.9,11.5c0,0.2-0.1,0.4-0.2,0.5c0-0.8,0.1-1.6,0.1-2.3c0.1-0.8,0.2-1.7,0.3-2.5c0.5-2.9,1.6-5.6,3.4-7.9
			c1.1-1.4,2.3-2.6,3.7-3.6c1.3-1,2.7-2.1,4-3.1c0.1-0.1,0.3-0.1,0.3-0.4c-0.1,0-0.2,0-0.4,0.1c-1.6,0.4-3.3,0.8-4.9,1.2
			c-2.8,0.7-5.5,1.6-8.1,2.9c-2.1,1.1-4,2.4-5.6,4.2c0,0-0.1,0.1-0.2,0.1c0.1-0.5,0.3-1,0.6-1.4c1.5-2.5,3.4-4.7,5.9-6.2
			c2-1.2,4.1-2,6.3-2.5c2.5-0.6,5.2-0.8,7.7-1.2c0.1,0,0.3,0.1,0.3-0.1c-0.1,0-0.2-0.1-0.3-0.1c-1.6-0.6-3.1-1.1-4.7-1.7
			c-4.1-1.4-8.3-1.9-12.6-1c-0.5,0.1-0.9,0.2-1.4,0.3c0.1-0.1,0.1-0.1,0.1-0.1c0.1-0.1,0.2-0.1,0.3-0.2c2.5-1.5,5.1-2.4,8-2.8
			c2.7-0.3,5.3-0.1,7.9,0.4c1.9,0.4,3.9,0.9,5.8,1.4c0.2,0,0.3,0.1,0.5,0c-0.3-0.7-0.5-1.3-0.8-2c-0.8-2.2-2.1-3.9-4-5.2
			c-1.9-1.3-4-2.2-6.2-2.8c-0.1,0-0.3,0-0.4-0.2c0,0,0.1,0,0.1-0.1c2.6-0.6,5.2-0.4,7.8,0.6c2.4,0.9,4.4,2.3,6.3,4
			c1.6,1.4,2.9,3,4.3,4.6c0.1,0.2,0.3,0.3,0.4,0.5c0.1-0.1,0.1-0.2,0.1-0.3c-0.1-1.7-0.2-3.4-0.4-5.1c-0.6-4-2.4-7.4-5.3-10.2
			c-0.1-0.1-0.2-0.1-0.2-0.3c0.5,0,1,0.1,1.6,0.2c2.4,0.3,4.4,1.4,6.1,3.1c0.9,0.9,1.6,1.8,2.2,2.9c1.7,2.8,3,5.8,3.6,9
			c0.1,0.4,0.2,0.8,0.1,1.3c0.1-0.1,0.1-0.1,0.1-0.1c0.8-1.7,1.7-3.4,2.3-5.3c0.3-1.1,0.5-2.2,0.5-3.3c0-2.6-0.5-5.2-1.2-7.7
			c0.5,0,1,0.2,1.4,0.6c0.4,0.4,0.7,0.8,1,1.3c1.6,2.6,2.3,5.4,2.6,8.4c0.2,1.8,0.3,3.6,0.5,5.4c0,0.1,0,0.3,0.1,0.4
			c0.5-0.5,1-0.9,1.5-1.4c1.8-1.6,3-3.6,3.6-5.9c0.2-1,0.4-2,0.6-3c0.2,0.2,0.2,0.4,0.3,0.6c0.4,1.3,0.4,2.5,0.3,3.8
			c-0.2,1.7-0.5,3.4-0.9,5.1c-0.3,1.4-0.7,2.8-1.1,4.2c-0.1,0.3-0.1,0.5,0.1,0.7c0.5-0.3,1.1-0.6,1.6-0.8c1.2-0.6,2.2-1.4,3-2.5
			c0.9-1.1,1.7-2.4,2.4-3.7c0.1-0.1,0.1-0.3,0.3-0.4c0,0.7-0.2,1.4-0.4,2c-0.6,2.1-1.7,4-3.1,5.7c-1,1.3-1.9,2.7-2.8,4.1
			c-0.2,0.3-0.4,0.7-0.6,1c0.1,0.1,0.2,0,0.2,0c1.6-0.8,3.1-1.7,4.7-2.5c1.6-0.9,3.1-1.9,4.4-3.1c0,0,0.1-0.1,0.2-0.1c0,0,0,0,0,0
			c0,0.2-0.1,0.3-0.2,0.5c-0.8,1.6-2,2.9-3.4,4.1c-1.3,1.1-2.6,2.3-3.9,3.5c-0.1,0.1-0.2,0.1-0.2,0.3c0.3,0,0.6,0.1,0.9,0
			c1.3-0.4,2.6-0.8,4-1.2c1.3-0.4,2.4-1,3.6-1.7c0,0,0.1,0.1,0.1,0.1c-0.1,0.3-0.4,0.5-0.6,0.7c-1.2,1.3-2.6,2.6-3.9,3.9
			c-0.1,0.1-0.3,0.3-0.5,0.5c2.8-0.1,5.5,0,8.2-0.8c-2.6,2-5.6,3.1-8.6,4.6c3,0.3,5.9,0.5,8.7,0.8c-2.3,0.6-4.6,1.2-7,1.6
			c3,0.8,5.6,2,7.1,4.9c-0.2-0.1-0.4-0.2-0.6-0.3c-1.4-0.7-2.8-1.4-4.3-1.6c-1.2-0.1-2.4-0.1-3.6-0.2c-0.1,0-0.2-0.1-0.4,0.1
			c0.1,0.2,0.3,0.3,0.4,0.4c1.1,0.9,2.1,1.7,3.2,2.6c1.2,1,2.4,2,3.5,3.3c1.1,1.3,1.9,2.7,2.3,4.3c0,0.2,0.1,0.4,0,0.7
			c-0.5-0.5-0.9-1-1.3-1.4c-2.1-2.4-4.8-3.8-7.6-5c0-0.1-0.1-0.1-0.1,0c0,0,0,0.1,0,0.1c0.7,1.1,1.5,2.1,2.3,3.1
			c0.7,1,1.4,1.9,1.9,3c1.2,2.3,1.9,4.7,1.8,7.3c0,0.2,0,0.5-0.1,0.7c0,0.2,0,0.5-0.1,0.7c-0.1-0.1-0.1-0.1-0.1-0.2
			c-0.2-1.5-0.8-2.8-1.6-4.1c-1.2-2.1-2.8-3.9-4.6-5.4c0,0-0.1,0-0.1,0c0,0,0,0,0,0c0.1,0,0.1,0,0.1-0.1c-0.2,0.1,0,0.2,0,0.3
			c0.1,0.4,0.3,0.8,0.5,1.2c0.8,2.5,1.4,5.1,1.2,7.8c0,0.1,0,0.1,0.1,0.2c1.7,0.3,2.8,1.4,3.8,2.7c0.7-0.3,1.4-0.6,2-1
			c0.8-0.5,1.3-1.3,1.3-2.3c0-1.1,0.1-2.1-0.1-3.2c0-0.3-0.1-0.6-0.1-1c0.2,0.2,0.3,0.4,0.4,0.5c1,1.1,2.5,0.8,3.1-0.6
			c0.2-0.5,0.3-1,0.2-1.6c-0.2-1.4-0.6-2.8-1.2-4.1c-0.5-1.3-1.3-2.5-2.1-3.6c0,0,0,0,0.1-0.1c0.1,0,0.2,0.1,0.3,0.2
			c0.5,0.4,1.1,0.6,1.7,0.6c1.1,0,1.9-0.9,2-2c0-0.8-0.4-1.5-0.9-2.1c-1.1-1.2-2.4-2.4-3.7-3.5c-0.1-0.1-0.3-0.2-0.4-0.4
			c0.2,0,0.3-0.1,0.5-0.1c0.8-0.1,1.7-0.2,2.5-0.3c0.6-0.1,1.2-0.3,1.7-0.7c1.1-1,0.9-2.6-0.3-3.4c-0.3-0.2-0.7-0.3-1.1-0.3
			c-0.4,0-0.8-0.1-1.2-0.1c-0.4-0.1-0.9,0-1.3-0.2c0.1-0.2,0.3-0.3,0.5-0.4c1-0.7,1.9-1.5,2.6-2.4c0.5-0.6,0.7-1.2,0.6-2
			c-0.1-1.1-1-1.7-2-1.5c-0.3,0.1-0.6,0.2-0.8,0.3c-1,0.4-2,0.7-3.1,1c0.4-0.5,0.7-0.8,1-1.2c0.8-0.9,1.4-2,1.8-3.1
			c0.1-0.4,0.2-0.8,0.2-1.3c-0.1-1.1-1.1-1.7-2.1-1.3c-0.3,0.1-0.5,0.3-0.8,0.4c-0.1,0.1-0.2,0.2-0.4,0.3c0-0.2,0.1-0.3,0.1-0.5
			c0.3-0.6,0.6-1.3,0.7-2c0.2-0.8,0.3-1.5,0.1-2.3c-0.3-1.2-1.4-1.7-2.5-1.1c-0.4,0.2-0.7,0.5-1,0.9c-0.3,0.3-0.5,0.6-0.8,0.9
			c0,0,0,0-0.1-0.1c0.2-0.7,0.5-1.4,0.7-2.1c0.3-1.1,0.5-2.2,0.4-3.4c-0.1-0.7-0.2-1.3-0.6-1.9c-0.4-0.5-0.9-0.9-1.6-0.9
			c-0.8,0-1.3,0.4-1.7,1c-0.3,0.5-0.6,1.1-0.8,1.7C75,32.6,74.6,33.3,74.1,33.9z M70.4,97.3c0,0,0,0.1,0,0.1
			c-0.2,1.3,0.1,2.5,0.5,3.7c0.3,0.8,0.8,1.3,1.6,1.5c1.1,0.3,2.3,0.4,3.4,0.1c1.4-0.4,2.5-1.2,3.5-2.2c0.9-0.8,1.6-1.8,2.4-2.8
			c1-1.3,1.9-2.7,3-3.9c0.3-0.4,0.7-0.8,1.1-1.2c0.3,0,0.4,0.1,0.7,0.2c1.3,0.3,2.5,0.1,3.6-0.7c0.6-0.4,1-1,1.1-1.7
			c0.2-1.1-0.5-2.3-1.6-2.9c-0.2,0.1-0.2,0.2-0.3,0.4c-1.1,1.2-2.4,1.9-4.1,1.9c-0.3,0-0.5,0-0.8-0.1c-0.2-0.1-0.4-0.4-0.3-0.6
			c0-0.3,0.2-0.3,0.5-0.4c0.2,0,0.3,0,0.5-0.1c0.4,0,0.7-0.1,1.1-0.1c2.1-0.4,2.9-2.4,1.6-4.2c-0.7-0.9-1.6-1.6-2.7-1.8
			c-1.5-0.4-2.7,0.2-3.2,1.7c-0.4,0.9-0.5,1.8-0.4,2.7c0.4,0.3,0.9,0.5,1.2,0.9c0.3,0.3,0.5,0.7,0.6,1.1c0,0.2,0,0.4-0.2,0.5
			c-0.2,0.1-0.3,0-0.5-0.1c-0.1-0.1-0.2-0.2-0.3-0.3c-1-1-2.1-1.6-3.5-1.8c-0.7-0.1-1.3-0.1-1.9,0c-0.2,0-0.5,0.1-0.6-0.2
			c-0.1-0.2,0.1-0.4,0.2-0.6c0.1-0.1,0.2-0.2,0.4-0.2c0.3-0.2,0.7-0.2,1-0.2c0.6,0,1.2,0.1,1.8,0.2c0.2-0.3,0.4-0.5,0.5-0.8
			c0.2-0.2,0.3-0.5,0.3-0.8c0.3-2-1-3.8-3.1-3.9c-2-0.1-3.8,1.3-3.5,3.7c0.1,0.8,0.3,1.6,0.7,2.3c0.1,0.2,0.2,0.5,0.2,0.7
			c0.2,1.2,0.1,2.4-0.2,3.6c-0.2,1-0.5,2-1,2.8c-0.3,0.6-1,1-1.6,1c0-0.4,0.3-0.7,0.5-1.1c0.2-0.4,0.4-0.7,0.6-1.1
			c-0.1,0-0.2,0-0.2,0c-0.6-0.1-1.1-0.1-1.7-0.3c-0.5-0.2-1-0.4-1.4-0.8c-0.4-0.5-0.7-1-0.4-1.8c0.3-1,0.4-2,0.1-3
			c-0.2-0.7-0.4-1.4-1-1.9c-0.2,0.1-0.2,0.3-0.3,0.4c-0.3,0.6-0.7,1.1-1.3,1.4c-0.4,0.2-0.8,0.5-1.2,0.6c-0.8,0.2-1.2,0.7-1.5,1.4
			c-0.1,0.5-0.4,0.9-0.6,1.4c0.5,0,0.9,0,1.3,0.1c0.7,0.1,1.4,0.2,2,0.5c0.8,0.4,1.2,1.1,1.1,2c0,0.2,0,0.4,0,0.6
			c-0.1,1.2,0.3,2.2,1.2,2.9C69.7,96.7,70,97,70.4,97.3z M34.6,90.4c-0.6-0.8-1.1-1.5-1.6-2.3c-0.3-0.6-0.6-1.1-0.8-1.7
			c-0.1-0.2-0.1-0.4,0-0.6c0.1-0.3,0.1-0.6,0.1-0.9c-0.1-0.8-0.5-1.3-1.1-1.7c-2.1-1.4-4.4,0.1-5.2,1.5c-0.3,0.5-0.2,1.1,0,1.6
			c0.2,0.4,0.5,0.8,0.9,1.1c0.3,0.2,0.4,0.5,0.5,0.8c0.1,0.6-0.3,1-0.9,0.7c-0.3-0.1-0.5-0.3-0.7-0.5c-0.3-0.3-0.6-0.5-0.9-0.7
			c-0.9-0.5-1.8-0.4-2.6,0.2c-0.9,0.7-1.4,1.7-1.3,2.8c0,0.9,0.5,1.6,1.4,1.9c0.5,0.2,1,0.2,1.4,0.1c0.5-0.1,1.1-0.2,1.6-0.1
			c0.2-0.2,0.2-0.4,0.2-0.6c0.2-0.4,0.3-0.9,0.6-1.2c0.3-0.3,0.6-0.6,1-0.6c0.2,0,0.3,0,0.4,0.2c0.1,0.1,0.1,0.3,0,0.4
			c-0.1,0.1-0.2,0.3-0.3,0.4c-0.5,0.6-0.9,1.4-1.1,2.2c-0.2,0.8-0.1,1.5,0.1,2.3c0.1,0.3,0.2,0.5,0,0.8c-0.7,0-0.9-0.4-1.1-2.2
			c-0.5-0.2-0.9-0.4-1.5-0.6c-1.1-0.3-2.2,0.4-2.4,1.6c-0.3,1.4,0.5,2.6,2,2.7c0.6,0,1.1,0,1.6-0.2c0.4-0.2,0.8-0.1,1.2,0.2
			c0.4,0.3,0.9,0.5,1.4,0.7c1.1,0.4,2.3,0.7,3.4,0.9c0.5,0.1,0.9,0.2,1.4,0.2c0-0.9,0-1.7,0-2.5c-1.9-1.1-3.6-3.1-3.7-4.4
			c1.2,0.5,2.5,0.9,3.7,1.1C32.4,91.5,32.6,91.4,34.6,90.4z M61.5,99.2C61.5,99.2,61.5,99.2,61.5,99.2c0-0.6,0-1.2,0-1.8
			c0-0.7,0-1.3,0-2c0-0.9-0.7-1.7-1.6-1.7c-1,0-2.1,0-3.1,0.1c-0.5,0-1.1,0-1.6,0c-1,0-2-0.1-3-0.2c-0.9-0.1-1.5,0.6-1.6,1.4
			c0,0.2,0,0.3,0,0.5c0,1.2,0,2.3,0.1,3.5c0,1,0,1.9-0.1,2.9c0,1.4,0.6,2.1,2,2.1c0.7,0,1.3,0,2,0c1.7,0.1,3.4,0.2,5,0.3
			c1,0.1,1.8-0.7,1.7-1.8C61.4,101.5,61.5,100.3,61.5,99.2z M43.5,98.3c0-0.4,0-0.8,0-1.2c0-0.8,0.1-1.6,0.1-2.4
			c0-0.9-0.8-1.9-1.8-1.9c-0.3,0-0.5,0-0.8,0c-2,0-4.1,0-6.1-0.4c-0.5-0.1-0.9,0-1.4,0.2c-0.5,0.3-0.8,0.7-0.8,1.4
			c0.1,2.3,0.1,4.5,0,6.8c0,1.1,0.6,1.8,1.7,1.9c1,0.1,2,0.2,2.9,0.3c1.5,0.2,3.1,0.4,4.6,0.6c0.5,0.1,0.9-0.1,1.2-0.5
			c0.3-0.3,0.4-0.7,0.4-1.2C43.6,100.7,43.5,99.5,43.5,98.3z M58.5,80.3c-0.4,0.1-0.4,0.1-0.8,0c-0.5-0.2-1-0.3-1.6-0.3
			c-1.4,0-2.2,0.9-2.1,2.3c0.1,0.9,0.3,1.2,1.2,1.3c0.2,0,0.4,0.1,0.6,0.3c0.1,0.1,0.2,0.3,0.1,0.5c-0.1,0.2-0.2,0.3-0.5,0.3
			c-0.1,0-0.3,0-0.4,0c-0.8,0-1.3,0.4-1.2,1.2c0,1.2,1.1,2.5,2.7,2.1c0.1,0,0.3-0.1,0.4-0.1c0.2,0,0.4,0.1,0.5,0.3
			c0.1,0.3-0.2,0.3-0.3,0.4c-0.2,0.1-0.5,0.2-0.8,0.3c-0.3,0.2-0.4,0.3-0.2,0.7c0.1,0.2,0.3,0.4,0.6,0.5c0.3,0.1,0.6,0.2,0.9,0.2
			c0.8,0,1.6-0.1,2.4-0.2c1.2-0.3,2-1,2.4-2.2c0.1-0.4,0.2-0.7,0.3-1.1c0.2-1.5,0.4-3,0.1-4.5c-0.4-2-1.6-3.4-3.5-4.2
			C59,78.1,58.6,78,58.3,78c-0.4,0-0.6,0.2-0.8,0.6c-0.1,0.4,0,0.8,0.4,1C58.2,79.8,58.5,79.9,58.5,80.3z M45.5,86.2
			c0.3,0.5,0.4,1,0.4,1.6c0,0.6-0.3,1.1-0.7,1.5c0.4,0.2,0.7,0.2,1,0.2c1.7,0,3.5,0.1,5.2,0.2c0.7,0.1,1.3,0.1,2,0.1
			c0.5,0,0.9-0.2,1.2-0.7c-0.9-0.5-1.5-1.3-1.8-2.3c-0.3-1-0.1-1.9,0.6-2.7c-0.9-1.8-0.8-3.4,0.7-4.8c-0.4-0.3-0.8-0.3-1.2-0.3
			c-2.4,0.1-4.8,0.2-7.2-0.1c-0.3,0-0.5,0-0.8,0.2c0.6,1.7,0.6,2,0.2,3.2C46.1,83.5,46.2,84.8,45.5,86.2z M43.4,78.3
			c0.2-0.6,0.1-0.9-0.5-1.1c-0.6-0.2-1.3-0.2-1.9-0.1c-1.7,0.2-2.8,1.1-3.3,2.8c-0.4,1.3-0.5,2.7-0.4,4.1c0.2,1.6,0.8,3,1.8,4.1
			c0.4,0.4,0.8,0.7,1.3,0.8c1.1,0.3,2.3,0.3,3.4,0c0.2-0.1,0.4-0.1,0.5-0.2c0.5-0.3,0.7-1,0.4-1.7c-0.2-0.5-0.6-0.6-1.2-0.5
			c-0.2,0-0.3,0.1-0.5,0.1c-0.2,0-0.4,0-0.4-0.2c-0.1-0.2,0-0.4,0.1-0.5c0.2-0.1,0.4-0.2,0.6-0.2c0.2,0,0.4,0,0.7,0
			c0.4,0,0.7-0.2,0.8-0.6c0.2-0.5,0.2-1.1-0.1-1.6c-0.2-0.4-0.7-0.6-1.2-0.5c-0.2,0-0.4,0.1-0.6,0.2c-0.2,0.1-0.3,0.1-0.5,0.1
			c-0.3,0-0.5-0.2-0.5-0.6c0-0.3,0.2-0.5,0.5-0.5c0.3,0,0.6,0.1,0.9,0c0.9-0.1,1.3-0.6,1.1-1.5c0-0.1,0-0.2-0.1-0.3
			c-0.2-0.9-0.6-1.1-1.5-0.9c-0.2,0-0.4,0.1-0.6,0C42.2,78.7,42.5,78.4,43.4,78.3z M49.9,92.6c0-0.1,0-0.3,0-0.4
			c0.1-0.7-0.5-0.9-0.9-0.6c-0.4,0.3-0.8,0.4-1.3,0.5c-0.7,0.2-1.5,0.5-2.2,0.7c-0.4,0.1-0.7,0.3-0.9,0.7c-0.2,0.5-0.3,1-0.2,1.5
			c0.1,0.4,0.1,0.8,0.1,1.2c0,0.6,0,1.1,0.1,1.7c0.1,0.3,0,0.6,0,0.9c-0.2,1.2,0,2.4-0.2,3.5c0,0,0,0.1,0,0.1
			c0.1,0.6,0.4,0.8,0.9,0.4c1.2-0.8,2.4-1.3,3.7-1.8c0.6-0.2,0.6-0.3,0.6-0.9c0-1.4,0-2.8,0.1-4.1C49.9,94.9,49.8,93.7,49.9,92.6z
			 M62.5,103.1c0,0.1,0,0.4,0,0.6c0.1,0.4,0.4,0.5,0.7,0.3c0.1,0,0.1-0.1,0.2-0.1c0.9-0.7,1.8-1.2,2.8-1.6c0.6-0.2,0.9-0.7,0.9-1.4
			c0-0.9-0.1-1.8-0.1-2.8c-0.1-1.6-0.1-3.2,0-4.8c0-0.2,0-0.4,0-0.6c-0.1-0.5-0.4-0.6-0.8-0.3c-0.4,0.3-0.9,0.5-1.4,0.6
			c-0.4,0.1-0.8,0.2-1.2,0.4c-0.8,0.3-1.2,0.8-1.1,1.7c0,0.5,0.1,1,0.1,1.4C62.7,98.6,62.7,100.8,62.5,103.1z M66.1,91.5
			c-0.1-0.2-0.3-0.2-0.5-0.2c-0.6-0.1-1.3-0.1-1.9-0.1c-0.8,0-1.6,0-2.4,0.1c-1.3,0.1-2.5,0.1-3.8,0c-0.6,0-1.2,0-1.8,0.2
			c-0.5,0.2-1,0.3-1.6,0.4c-0.5,0.1-1,0.2-1.5,0.3c-0.2,0-0.4,0.1-0.5,0.3c0,0.1,0.2,0.2,0.3,0.2c0.3,0,0.6,0.1,0.9,0.1
			c1.5,0.1,3,0.1,4.5,0.1c1,0,2.1,0,3.1,0.1c0.6,0,1.1,0,1.7-0.3c0.5-0.2,1-0.4,1.5-0.5c0.5-0.1,1-0.3,1.5-0.4
			C65.8,91.7,66,91.7,66.1,91.5z M48.3,90.6c-0.2-0.2-0.4-0.2-0.6-0.2c-1,0-2-0.1-3-0.1c-1.1-0.1-2.1-0.1-3.2-0.2
			c-1.1-0.1-2.1-0.1-3.1,0.3c-0.4,0.1-0.7,0.2-1.1,0.2c-0.5,0.1-1.1,0.2-1.6,0.3c-0.3,0.1-0.6,0.1-0.8,0.4c0.2,0.2,0.4,0.2,0.7,0.2
			c1,0.1,2,0.1,3,0.1c1.4,0.1,2.8,0.2,4.2,0.4c0.6,0.1,1.3,0.1,1.9-0.1c0.6-0.2,1.3-0.4,1.9-0.5c0.5-0.1,1-0.2,1.4-0.4
			C48,90.9,48.2,90.9,48.3,90.6z M58.5,76.7c-0.3-0.2-0.3-0.2-0.5-0.2c-1.1-0.1-2.2-0.1-3.3-0.1c-1.4,0.1-2.8,0.1-4.2,0.1
			c-0.9,0-1.7,0-2.6,0.4c-0.3,0.1-0.7,0.2-1.1,0.3c-0.5,0.1-1.1,0.2-1.6,0.3c-0.2,0-0.4,0-0.5,0.3c0.3,0.2,0.7,0.2,1.1,0.2
			c1.4,0.1,2.8,0.1,4.2,0.1c1.1,0,2.2,0,3.3,0.1c0.5,0,1.1,0,1.6-0.2c0.6-0.3,1.2-0.4,1.8-0.6c0.4-0.1,0.8-0.2,1.3-0.3
			C58.3,77,58.5,76.9,58.5,76.7z M38.2,61c1.1-0.4,2.2-0.7,3.3-1.2c0.3-0.2,0.7-0.3,0.9-0.6c0.3-0.3,0.3-0.5,0-0.8
			c-0.7-0.8-1.7-1.3-2.8-1.4C39,57,38.5,57.3,38.2,58c-0.1,0.3-0.2,0.6-0.2,1C37.9,59.6,37.9,60.3,38.2,61z M35.1,69.6
			c0.6,0,1.3-0.2,1.6-0.6c0.6-0.6,0.5-1.3-0.2-1.7c-0.4-0.3-0.8-0.4-1.3-0.4c-0.8-0.1-1.5,0.2-1.9,0.9c-0.4,0.7-0.2,1.3,0.5,1.6
			C34.2,69.6,34.7,69.6,35.1,69.6z M43.2,60.4c-0.4,0.4-0.9,0.5-1.4,0.7c-0.3,0.1-0.5,0.3-0.7,0.5c-0.1,0.1-0.2,0.2-0.2,0.4
			c0,0.4,0.1,0.8,0.5,1.1c0.4,0.3,0.8,0.1,0.9-0.4c0-0.1,0-0.2,0.1-0.3c0.5,0.8,0.5,1.5,0.3,2.4c0.3,0,0.4-0.1,0.5-0.3
			c0.3-0.3,0.4-0.6,0.4-1C43.8,62.5,43.5,61.5,43.2,60.4z M49.8,75.2c2.3,0.2,4.6,0.3,7,0.4c0,0,0-0.1,0-0.1
			c-0.9-0.6-1.7-1.2-2.6-1.8C52.8,74.5,51.3,74.9,49.8,75.2z M58.1,71.5c-0.4-0.2-0.6-0.2-0.8,0c-0.2,0.2-0.2,0.5-0.1,0.7
			c0.2,0.2,0.4,0.3,0.6,0.2c0.5-0.1,0.9-0.5,1.3-0.9c0.1-0.1,0.2-0.3,0.2-0.5c0-0.2,0-0.3-0.2-0.4c-0.2-0.1-0.3,0-0.4,0.1
			C58.4,70.8,58.2,71.1,58.1,71.5z M23.3,53.7C23.3,53.7,23.3,53.6,23.3,53.7C23.3,53.6,23.2,53.6,23.3,53.7
			C23.3,53.7,23.3,53.7,23.3,53.7C23.3,53.7,23.3,53.7,23.3,53.7z"/>
		<path class="st0" d="M16.1,24.2c0.7,1.1,1.5,2.3,2.2,3.4c0.3,0.4,0.3,0.7,0,1.1c-0.1,0.1-0.2,0.3-0.3,0.4
			c-0.2,0.2-0.4,0.3-0.6,0.2c-1.2-0.2-2.4-0.5-3.6-0.7c-0.2,0-0.4-0.1-0.6-0.1c0.1,0.2,0.3,0.3,0.4,0.4c0.9,0.6,1.8,1.2,2.7,1.8
			c0.4,0.3,0.4,0.3,0.2,0.7c0,0,0,0.1-0.1,0.1c-0.5,0.8-0.5,0.8-1.3,0.3c-1.2-0.8-2.4-1.6-3.6-2.4c-0.1-0.1-0.2-0.2-0.4-0.2
			c-0.2-0.2-0.3-0.4-0.1-0.7c0.3-0.5,0.5-0.9,0.9-1.3c0.3-0.3,0.6-0.3,1-0.3c1.1,0.2,2.3,0.4,3.4,0.6c0,0,0.1,0.1,0.1,0
			c0,0,0-0.1,0-0.1c-0.6-1-1.2-2-1.8-2.9c-0.4-0.6-0.4-1,0-1.6c0.2-0.2,0.3-0.5,0.5-0.7c0.3-0.4,0.5-0.4,0.9-0.2
			c1.4,0.9,2.9,1.9,4.3,2.8c0.2,0.1,0.3,0.3,0.1,0.6c0,0.1-0.1,0.1-0.1,0.2c-0.5,0.8-0.5,0.8-1.3,0.3c-0.9-0.6-1.9-1.2-2.8-1.8
			c-0.1,0-0.1-0.1-0.2,0C16,24.1,16.1,24.1,16.1,24.2z"/>
		<path class="st0" d="M7.7,43.4c0.1,0.2,0.3,0.3,0.5,0.4c1.1,0.7,2.1,1.3,3.2,2c0.3,0.2,0.4,0.4,0.4,0.7c0,0.1,0,0.3,0,0.4
			c-0.1,0.4-0.2,0.7-0.7,0.8c-1.2,0.3-2.4,0.6-3.6,1c-0.1,0-0.3,0-0.4,0.2c0.8,0.1,1.5,0.2,2.3,0.3c0.6,0.1,1.1,0.2,1.7,0.2
			c0.3,0.1,0.4,0.1,0.4,0.5c0,0.1,0,0.1,0,0.2c-0.1,0.9-0.2,1-1.1,0.9c-1.5-0.2-3-0.4-4.5-0.7C5.2,50.2,5,50,5,49.6
			c0-0.4,0.1-0.8,0.2-1.3c0.1-0.5,0.4-0.7,0.8-0.9c1.1-0.3,2.1-0.6,3.2-0.9c0.1,0,0.2,0,0.3-0.1c-0.1-0.2-0.3-0.2-0.4-0.3
			c-0.9-0.6-1.7-1.1-2.6-1.7c-0.5-0.3-0.7-0.7-0.6-1.2c0.1-0.3,0.1-0.7,0.1-1c0.1-0.4,0.3-0.6,0.7-0.5c1.7,0.2,3.3,0.5,5,0.7
			c0.3,0,0.4,0.1,0.4,0.5c0,0,0,0,0,0.1c0,1-0.2,1.2-1.1,1c-0.9-0.1-1.8-0.3-2.7-0.4C8.2,43.4,8,43.4,7.7,43.4z"/>
		<path class="st0" d="M99.3,43.8c0.2,0.9,0.2,0.9-0.6,1.1c-0.5,0.1-0.9,0.3-1.4,0.4c-0.3,0.1-0.4,0-0.5-0.2
			c-0.1-0.3-0.3-0.7-0.2-1.1c0.4-0.2,0.9-0.2,1.4-0.5c-0.4-1.5-0.8-3-1.3-4.5c-0.5,0.1-0.9,0.3-1.4,0.4c-0.4-0.3-0.4-0.8-0.5-1.2
			c0-0.2,0.1-0.3,0.3-0.3c0.6-0.2,1.3-0.4,1.9-0.6c0.2-0.1,0.4,0,0.5,0.3c0.1,0.3,0.3,0.4,0.5,0.4c0.4,0.1,0.7,0.2,1.1,0.2
			c1,0,2-0.1,2.9-0.3c0.7-0.1,0.8,0,0.9,0.6c0.3,1,0.6,2.1,0.9,3.1c0.2,0.7,0.1,0.8-0.6,1c-1.2,0.3-2.3,0.7-3.5,1
			C99.7,43.7,99.5,43.7,99.3,43.8z M102.1,39.6c-1.3,0.1-2.6,0.4-4,0c0.2,0.9,0.5,1.7,0.7,2.5c0.6-0.1,3.2-0.9,3.7-1.1
			C102.4,40.6,102.3,40.1,102.1,39.6z"/>
		<path class="st0" d="M81.1,13.9c0.2,0.1,0.4-0.1,0.6-0.1c1.1-0.3,2.2-0.6,3.3-1c0.5-0.1,1.2,0.1,1.5,0.6c0.1,0.1,0.1,0.2,0,0.3
			c-0.1,0.1-0.1,0.2-0.2,0.3c-1,1.4-1.9,2.8-2.9,4.2c-0.3,0.4-0.4,0.4-0.8,0.2c-0.9-0.5-0.9-0.6-0.3-1.5c0.4-0.6,0.8-1.1,1.2-1.7
			c0.1-0.1,0.2-0.3,0.3-0.5c-0.2,0-0.4,0.1-0.6,0.1c-1.1,0.3-2.2,0.6-3.2,0.9c-0.7,0.2-1.2,0-1.7-0.7c0-0.2,0.1-0.3,0.2-0.4
			c0.9-1.4,1.9-2.8,2.8-4.1c0.3-0.5,0.4-0.5,0.9-0.2c0.9,0.5,0.9,0.6,0.3,1.5c-0.4,0.6-0.8,1.2-1.2,1.8
			C81.3,13.6,81.2,13.7,81.1,13.9z"/>
		<path class="st0" d="M7.6,54.5c0.6,0.4,1.1,0.8,1.5,1.1c0.7,0.5,1.3,0.9,2,1.4c0.4,0.3,0.6,1.1,0.4,1.5c-0.1,0.2-0.2,0.2-0.4,0.2
			c-1,0.1-2.1,0.1-3.1,0.2c-0.7,0-1.4,0.1-2.1,0.1c-0.4,0-0.5,0-0.5-0.5c0-0.2,0-0.5,0-0.7c0-0.4,0.1-0.5,0.4-0.5
			c0.6,0,1.2-0.1,1.8-0.1c0.4,0,0.8-0.1,1.4-0.1c-0.2-0.2-0.4-0.3-0.5-0.4c-0.9-0.7-1.8-1.3-2.8-2C5,54.3,4.9,53.9,5.1,53
			c0.2-0.1,0.4-0.1,0.6-0.1c1.6-0.1,3.3-0.2,4.9-0.4c0.5,0,0.5,0,0.6,0.5c0,0.1,0,0.1,0,0.2c0.1,0.9,0.1,1-0.9,1.1
			c-0.7,0.1-1.4,0.1-2.2,0.1C8,54.4,7.9,54.4,7.6,54.5z"/>
		<path class="st0" d="M9.4,67.5c-1.1,0-1.9-0.4-2.5-1.3C6.3,65,6,63.8,6.2,62.5c0.1-0.6,0.4-1.2,1-1.5c0.9-0.6,1.8-0.8,2.8-0.7
			c0.8,0.1,1.4,0.5,1.9,1.2c0.7,1.1,0.9,2.4,0.7,3.7c-0.1,0.8-0.5,1.3-1.2,1.7C10.8,67.3,10.1,67.5,9.4,67.5z M9.1,65.7
			c0.5,0,1-0.1,1.5-0.3c0.7-0.3,1-0.9,0.8-1.8c-0.2-0.9-0.7-1.5-1.4-1.6c-0.1,0-0.1,0-0.2,0c-0.4,0-0.9,0.1-1.3,0.2
			c-0.9,0.3-1.2,0.8-1.1,1.8c0,0.2,0.1,0.4,0.1,0.5C7.8,65.4,8.3,65.7,9.1,65.7z"/>
		<path class="st0" d="M93.2,21.5c0.5,0,1.1,0.2,1.6,0.7c0.8,0.7,1.4,1.5,1.8,2.5c0.3,1,0.2,1.9-0.5,2.6c-0.5,0.6-1.1,1-1.8,1.2
			c-0.8,0.3-1.5,0.2-2.3-0.2c-1.2-0.7-2-1.9-2.3-3.3c-0.1-0.4,0-0.8,0.1-1.2C90.1,22.6,91.7,21.5,93.2,21.5z M92.8,27.1
			c0.6,0,1.1-0.3,1.5-0.7c1.1-0.9,1.1-1.8,0.1-2.9c-0.5-0.5-1.1-0.6-1.7-0.3c-0.4,0.2-0.8,0.5-1.2,0.8c-0.7,0.7-0.7,1.3-0.2,2.1
			c0.1,0.2,0.3,0.4,0.5,0.6C92.2,26.9,92.5,27,92.8,27.1z"/>
		<path class="st0" d="M97.7,78.5c0,0.4-0.1,0.7-0.2,1c-0.3,0.9-0.8,1.7-1.5,2.4c-0.8,0.7-1.7,0.9-2.7,0.5c-0.1,0-0.1,0-0.2-0.1
			c-2.2-0.9-2.9-2.9-1.7-5c0.3-0.6,0.7-1.1,1.2-1.5c0.7-0.6,1.5-0.8,2.4-0.5c0.7,0.2,1.4,0.6,1.9,1.2C97.4,77.1,97.7,77.7,97.7,78.5
			z M96.3,79c0-0.5-0.2-0.8-0.5-1.1c-0.3-0.3-0.7-0.6-1.1-0.8c-0.9-0.4-1.5-0.2-2.1,0.6c-0.1,0.2-0.2,0.3-0.3,0.5
			c-0.3,0.6-0.1,1.2,0.3,1.7c0.4,0.4,0.9,0.7,1.5,0.9c0.4,0.1,0.8,0.1,1.1-0.1C95.9,80.4,96.3,79.8,96.3,79z"/>
		<path class="st0" d="M12,33.1c0.1-0.1,0.2-0.2,0.3-0.3c0.9-0.7,2.1-0.2,2.4,0.8c0.2,0.6,0.1,1.1-0.1,1.7c-0.2,0.9-0.6,1.7-1,2.6
			c-0.2,0.4-0.4,0.5-0.7,0.3c-1.5-0.6-3.1-1.3-4.6-1.9C7.9,36.2,7.8,36,8,35.6c0.3-0.8,0.6-1.5,0.9-2.2c0.2-0.4,0.4-0.7,0.7-1
			c0.8-0.8,1.9-0.5,2.3,0.6C11.9,33,12,33,12,33.1z M13.1,36.5c0.2-0.5,0.4-0.9,0.5-1.4c0.1-0.5-0.2-0.8-0.6-0.9
			c-0.3,0-0.5,0.1-0.7,0.4C12,35,11.9,35.5,11.7,36C12.2,36.1,12.6,36.3,13.1,36.5z M9.4,35c0.4,0.2,0.8,0.3,1.2,0.5
			c0.2-0.3,0.3-0.7,0.4-1c0.1-0.4-0.1-0.7-0.4-0.8c-0.3-0.1-0.6,0-0.8,0.3C9.7,34.3,9.5,34.6,9.4,35z"/>
		<path class="st0" d="M89.8,20.4c0.1,0.5,0.2,1.1-0.2,1.5c-0.4,0.6-1.1,0.8-1.9,0.6c-0.5-0.2-1-0.5-1.4-0.9
			c-0.6-0.6-1.1-1.1-1.6-1.7c-0.3-0.4-0.3-0.5,0-0.9c1.2-1.2,2.4-2.3,3.6-3.5c0.3-0.3,0.5-0.3,0.8,0c0.5,0.6,1.1,1.1,1.6,1.7
			c0.2,0.2,0.4,0.5,0.5,0.8c0.6,1.3-0.3,2.4-1.4,2.2c0,0-0.1-0.1-0.1,0C89.8,20.3,89.8,20.4,89.8,20.4z M86.3,19.9
			c0.3,0.4,0.6,0.8,1,1c0.3,0.2,0.7,0.2,0.9-0.1c0.2-0.2,0.3-0.5,0.1-0.9c-0.2-0.5-0.6-0.8-1-1.2C87,19.2,86.7,19.6,86.3,19.9z
			 M89.1,17.1c-0.3,0.4-0.7,0.6-1,1c0.2,0.2,0.3,0.4,0.5,0.5c0.1,0.1,0.1,0.1,0.2,0.2c0.4,0.3,0.7,0.3,1,0c0.3-0.3,0.3-0.6,0-0.9
			C89.6,17.6,89.4,17.4,89.1,17.1z"/>
		<path class="st0" d="M97.4,74c-0.2,0-0.3,0.1-0.4,0.2c-1,0.8-2.3,0-2.4-1.1c-0.1-0.6,0-1.1,0.2-1.6c0.3-0.8,0.7-1.6,1-2.4
			c0.2-0.4,0.4-0.5,0.7-0.3c1.5,0.7,3.1,1.4,4.6,2.1c0.3,0.2,0.4,0.4,0.3,0.7c-0.4,0.9-0.7,1.8-1.2,2.6c-0.2,0.3-0.3,0.5-0.6,0.7
			c-0.9,0.8-2.1,0.2-2.3-0.7C97.5,74.2,97.4,74.1,97.4,74z M96.5,70.6c-0.2,0.5-0.4,0.9-0.5,1.3c-0.1,0.5,0.1,0.8,0.5,1
			c0.4,0.1,0.6-0.1,0.8-0.4c0.3-0.4,0.4-0.8,0.6-1.3C97.4,71,96.9,70.8,96.5,70.6z M98.8,71.6c-0.2,0.4-0.4,0.7-0.4,1.1
			c-0.1,0.4,0.1,0.6,0.4,0.8c0.3,0.1,0.5,0,0.8-0.3c0.2-0.3,0.4-0.7,0.5-1.1C99.6,72,99.3,71.8,98.8,71.6z"/>
		<path class="st0" d="M77.8,9c-0.1-0.1-0.2-0.1-0.2-0.1c-0.3-0.2-0.6-0.3-0.9-0.4c-0.2,0.1-0.2,0.2-0.3,0.4c-0.5,0.7-1,1.4-1.6,2.1
			c-0.2,0.3-0.5,0.5-0.8,0.7c-0.8,0.6-1.6,0.5-2.4,0c-0.2-0.1-0.3-0.3-0.2-0.6c0.1-0.2,0.1-0.3,0.2-0.4c0.1-0.2,0.3-0.3,0.5-0.2
			c0.4,0.2,0.7,0,1-0.2c0.4-0.3,0.7-0.7,1-1.1c0.5-0.6,0.9-1.2,1.4-1.9c0.3-0.5,0.4-0.5,0.9-0.2c1,0.5,1.9,1,2.9,1.5
			c0.5,0.3,0.5,0.4,0.3,0.9c-0.7,1.5-1.5,3-2.2,4.5c-0.2,0.4-0.3,0.5-0.7,0.3c-0.2-0.1-0.4-0.2-0.6-0.3c-0.4-0.2-0.4-0.3-0.2-0.7
			c0.6-1.2,1.2-2.3,1.7-3.5C77.7,9.4,77.8,9.2,77.8,9z"/>
		<path class="st0" d="M58.8,7.1c-0.9-0.1-1.7-0.2-2.6-0.2c-0.1,0.3-0.3,0.6-0.4,0.9c-0.1,0.3-0.3,0.4-0.5,0.4c-0.3,0-0.5,0-0.8-0.1
			C54.1,8.1,54,8,54.2,7.6c0-0.1,0.1-0.2,0.1-0.3c0.8-1.6,1.6-3.2,2.4-4.8C56.8,2.2,57.1,2,57.5,2c0.3,0,0.5,0,0.8,0
			c0.4,0,0.6,0.2,0.8,0.6c0.4,1.2,0.8,2.4,1.2,3.6c0.2,0.6,0.4,1.1,0.6,1.7c0.2,0.5,0.1,0.6-0.4,0.6c-1.1,0-1.1,0-1.5-1
			C58.9,7.4,58.8,7.2,58.8,7.1z M56.7,5.7c0.6,0.1,1.1,0.1,1.7,0.1c-0.3-0.8-0.5-1.5-0.7-2.3C57.4,4.4,57,5,56.7,5.7z"/>
		<path class="st0" d="M12.9,71.3c0.5-0.2,1-0.4,1.4-0.6c0.3-0.1,0.4,0,0.6,0.2c0,0,0.1,0.1,0.1,0.1c0.4,0.9,0.4,1.1-0.5,1.4
			c-1.4,0.5-2.7,1.1-4.1,1.6c-0.6,0.2-0.8,0.2-1-0.5c-0.3-0.9-0.8-1.8-0.9-2.7c-0.2-1.2,0.5-2.1,1.7-2.3c0.6-0.1,1.1,0.1,1.5,0.5
			c0.5,0.4,0.7,1,1,1.6C12.7,70.9,12.7,71.1,12.9,71.3z M11.8,71.7c-0.1-0.3-0.2-0.5-0.3-0.8c0-0.1-0.1-0.2-0.1-0.2
			c-0.3-0.4-0.7-0.5-1.2-0.3c-0.4,0.2-0.6,0.6-0.4,1c0.1,0.3,0.2,0.6,0.4,0.9C10.7,72.1,11.2,71.9,11.8,71.7z"/>
		<path class="st0" d="M20.8,21c0.3,0.4,0.7,0.7,1,1.1c0.4-0.3,0.7-0.7,1-1c0.2-0.2,0.5-0.5,0.7-0.7c0.2-0.2,0.4-0.2,0.6,0
			c0.1,0.1,0.2,0.1,0.2,0.2c0.2,0.3,0.2,0.4,0,0.7c-0.5,0.6-1.1,1.1-1.6,1.7c-0.2,0.3-0.5,0.5-0.7,0.8c-0.4,0.4-0.5,0.4-0.9,0
			c-1.2-1.2-2.4-2.3-3.6-3.5c-0.3-0.3-0.3-0.5,0-0.9c0.8-0.8,1.5-1.6,2.3-2.4c0.3-0.3,0.4-0.3,0.8,0c0.3,0.3,0.3,0.5,0,0.8
			c-0.5,0.5-1,1.1-1.6,1.7c0.3,0.3,0.6,0.6,0.8,0.8c0.2,0.1,0.3-0.1,0.3-0.2c0.4-0.4,0.7-0.8,1.1-1.1c0.3-0.3,0.4-0.3,0.6,0
			c0.4,0.3,0.4,0.5,0.1,0.9C21.6,20.1,21.2,20.5,20.8,21z"/>
		<path class="st0" d="M35.8,11.5c0.7-0.3,1.4-0.6,2-0.9c0.2-0.1,0.4-0.2,0.5,0c0.2,0.2,0.3,0.5,0.3,0.7c0,0.2-0.1,0.2-0.2,0.3
			c-1.1,0.5-2.1,1-3.2,1.5c-0.4,0.2-0.6,0.1-0.7-0.3c-0.7-1.5-1.3-3.1-2-4.6c-0.2-0.5-0.1-0.6,0.3-0.8c0.6-0.3,1.2-0.6,1.8-0.8
			C35,6.2,35.4,6,35.9,5.8c0.3-0.1,0.4-0.1,0.6,0.2c0.1,0.1,0.1,0.2,0.1,0.3c0.1,0.3,0.1,0.4-0.2,0.6c-0.6,0.3-1.2,0.5-1.7,0.8
			c-0.1,0.1-0.2,0.1-0.4,0.2c0.1,0.4,0.3,0.8,0.5,1.2c0.6-0.3,1.1-0.5,1.7-0.7c0.5-0.2,0.9,0.2,0.9,0.7c0,0.2-0.2,0.3-0.3,0.3
			c-0.6,0.3-1.1,0.5-1.7,0.8C35.3,10.6,35.6,11,35.8,11.5z"/>
		<path class="st0" d="M98.3,29.9c-0.4,0.2-0.7,0.4-1.1,0.6c0.1,0.4,0.3,0.7,0.5,1c0.1,0.2,0.2,0.4,0.3,0.6c0.2,0.5,0,0.9-0.5,0.9
			c-0.2,0-0.3-0.1-0.4-0.3c-0.2-0.4-0.4-0.8-0.6-1.2c-0.1-0.2-0.1-0.3-0.3-0.5c-0.4,0.2-0.8,0.4-1.2,0.7c0.2,0.6,0.5,1,0.8,1.5
			c0.1,0.2,0.2,0.3,0.3,0.5c0.1,0.2,0.3,0.4,0.1,0.6c-0.2,0.2-0.4,0.4-0.7,0.4c-0.2,0-0.3-0.2-0.4-0.4c-0.4-0.8-0.8-1.6-1.2-2.3
			c-0.1-0.2-0.2-0.4-0.3-0.5c-0.3-0.5-0.2-0.7,0.3-1c1.1-0.6,2.2-1.2,3.4-1.8c0.3-0.2,0.6-0.3,0.9-0.5c0.5-0.3,0.7-0.2,0.9,0.3
			c0.3,0.6,0.6,1.1,0.9,1.7c0.2,0.4,0.4,0.7,0.6,1.1c0.2,0.4,0.2,0.6-0.2,0.8c-0.4,0.2-0.6,0.2-0.8-0.2c-0.3-0.5-0.6-1.1-0.8-1.6
			C98.5,30.2,98.4,30,98.3,29.9z"/>
		<path class="st0" d="M101.1,47.2c-0.5,0.1-1,0.1-1.5,0.3c0,0.3,0.1,0.7,0.1,1.1c0,0.4,0.1,0.7,0.2,1.1c0.1,0.6,0,0.6-0.5,0.7
			c-0.5,0.1-0.6,0-0.7-0.5c-0.1-0.9-0.2-1.8-0.4-2.6c0-0.2-0.1-0.4-0.1-0.7c0-0.5,0.1-0.6,0.5-0.7c1.2-0.2,2.4-0.4,3.6-0.5
			c0.4-0.1,0.9-0.1,1.3-0.2c0.5-0.1,0.6,0,0.7,0.5c0.2,1.1,0.3,2.3,0.5,3.5c0,0.2-0.1,0.4-0.3,0.5c-0.6,0.2-0.8,0.1-0.9-0.5
			c-0.1-0.6-0.2-1.2-0.2-1.8c0-0.1,0-0.2-0.1-0.3c-0.4,0.1-0.7,0.1-1.1,0.2c-0.1,0.5,0.1,0.9,0.1,1.3c0,0.2,0.1,0.4,0.1,0.5
			c0,0.5,0,0.6-0.5,0.6c-0.5,0-0.5,0-0.6-0.5C101.3,48.5,101.2,47.9,101.1,47.2z"/>
		<path class="st0" d="M51.4,4.9c-0.1-0.8-0.1-1.5-0.2-2.2c0-0.5,0-0.5,0.5-0.6c0,0,0,0,0.1,0c1-0.1,1.1-0.1,1.2,1
			c0.1,1.5,0.2,3,0.3,4.5c0,0.7,0,0.7-0.7,0.8c0,0-0.1,0-0.1,0c-0.7,0-0.8,0-0.8-0.7c0-0.5-0.1-0.9-0.1-1.4c-0.2-0.1-0.4,0-0.5,0
			c-0.5,0.1-1.1,0.1-1.6,0c-1-0.1-1.6-0.6-1.8-1.7c-0.1-0.6-0.1-1.2-0.2-1.8c0-0.2,0.1-0.3,0.3-0.4c0.1,0,0.1,0,0.2,0
			c1-0.2,1.1-0.1,1.2,0.9c0,0.3,0,0.7,0.1,1C49.3,4.8,49.5,5,50,5.1C50.4,5.1,50.9,5.1,51.4,4.9z"/>
		<path class="st0" d="M45,3.1c0.1,0,0.3,0,0.5,0.1c0.7,0.1,0.8,0.4,0.8,1c0,0.3-0.1,0.4-0.4,0.4c-0.2,0-0.4-0.1-0.6-0.2
			c-0.4-0.1-0.8,0-1.2,0.1c-0.7,0.2-1,0.7-1.1,1.4C43,6.5,43.1,7,43.4,7.5c0.3,0.6,0.9,0.9,1.6,0.8c0.6-0.1,1.1-0.3,1.5-0.7
			c0.4-0.3,0.6-0.3,0.7,0.3c0.1,0.5,0.1,0.7-0.4,1c-1,0.7-2.2,0.9-3.4,0.7c-0.7-0.2-1.3-0.6-1.7-1.3c-0.4-0.7-0.6-1.5-0.5-2.3
			c0.1-1,0.6-1.7,1.4-2.2C43.4,3.3,44.1,3.1,45,3.1z"/>
		<path class="st0" d="M17.6,78.9c0.1-0.3,0.4-0.4,0.6-0.6c0.2-0.1,0.4-0.1,0.6,0c1.2,0.7,2.1,1.8,2.3,3.3c0.1,0.5-0.1,1-0.3,1.5
			c-0.6,1-1.5,1.7-2.6,1.9c-0.6,0.1-1.1,0-1.6-0.3c-1-0.6-1.7-1.4-2.1-2.5c-0.2-0.6,0-0.9,0.6-1.2c0.2-0.1,0.4,0,0.4,0.2
			c0,0.1,0,0.3,0.1,0.4c0,0.2,0.1,0.3,0.1,0.5c0.5,1.4,1.7,1.7,2.9,0.9c1.6-1.2,1.1-2.5,0-3.3c-0.2-0.1-0.4-0.2-0.6-0.3
			C17.8,79.2,17.6,79.2,17.6,78.9z"/>
		<path class="st0" d="M65,9.4c-0.5,0-1-0.1-1.5-0.3c-1.4-0.5-2.1-1.5-2-3c0.1-1.6,0.9-2.8,2.3-3.1c1.1-0.2,2.1-0.1,3,0.5
			c0.5,0.3,0.6,0.6,0.4,1.2c-0.1,0.4-0.3,0.4-0.6,0.2c-0.4-0.3-0.8-0.6-1.2-0.7c-0.9-0.2-1.6,0.2-2,1c-0.2,0.4-0.2,0.8-0.2,1.2
			c0,0.9,0.5,1.5,1.4,1.7c0.5,0.1,0.9,0.1,1.3-0.1C66,8,66.2,8,66.3,8c0.1,0,0.2,0,0.3,0.2c0.2,0.4-0.1,1-0.5,1.1
			C65.7,9.4,65.4,9.4,65,9.4z"/>
		<path class="st0" d="M25.3,19.2c-0.1,0-0.3,0-0.4-0.1c-2.1-0.4-3.4-3.1-2.2-5c0.5-0.8,1.2-1.4,2.2-1.8c0.6-0.2,0.9-0.1,1.2,0.5
			c0.2,0.3,0.1,0.5-0.3,0.6c-0.3,0.1-0.6,0.1-0.8,0.2c-0.8,0.4-1.2,1-1.2,1.8c0,0.8,0.9,1.9,1.7,2.1c0.4,0.1,0.8,0.1,1.1-0.1
			c0.5-0.3,0.9-0.7,1.1-1.2c0.1-0.1,0.1-0.3,0.2-0.4c0.2-0.3,0.3-0.3,0.5-0.1c0.5,0.4,0.5,0.7,0.2,1.3c-0.7,1.2-1.7,2-3,2.2
			C25.5,19.2,25.4,19.2,25.3,19.2z"/>
		<path class="st0" d="M98.1,60.6c0-0.6,0.1-1.2,0.3-1.8c0.5-1.2,1.4-1.8,2.6-1.9c0.5,0,1,0.1,1.4,0.2c1.2,0.4,1.8,1.3,2,2.6
			c0.1,0.9,0,1.8-0.5,2.6c-0.3,0.5-0.7,0.7-1.2,0.4c-0.2-0.1-0.3-0.3-0.2-0.5c0.1-0.1,0.1-0.2,0.2-0.3c0.1-0.2,0.2-0.4,0.3-0.6
			c0.5-1.3-0.2-2.4-1.5-2.6c-0.2,0-0.4,0-0.6,0c-1,0-1.5,0.6-1.7,1.6c0,0.4,0,0.9,0.1,1.3c0,0.1,0.1,0.2,0.1,0.4
			c0,0.1,0,0.3-0.1,0.3c-0.4,0.2-1-0.1-1.1-0.5C98.2,61.4,98.1,61,98.1,60.6z"/>
		<path class="st0" d="M103.7,54.6c-0.5,0-1,0-1.4,0c-1,0-2-0.1-3-0.1c-0.3,0-0.4-0.1-0.5-0.4c0-0.1,0-0.1,0-0.2c-0.1-1,0-1.1,1-1.1
			c1.1,0,2.3,0,3.4,0.1c0.2,0,0.4,0,0.6-0.1c0-0.5,0-1,0-1.4c0-0.5,0.1-0.6,0.6-0.6c0.5,0,0.6,0.1,0.6,0.6c0,1.6-0.1,3.1-0.1,4.7
			c0,0.4-0.2,0.5-0.6,0.5c-0.5,0-0.6-0.2-0.6-0.5C103.7,55.7,103.7,55.2,103.7,54.6z"/>
		<path class="st0" d="M29.8,10.3c0.9,1.4,1.7,2.8,2.6,4.2c-0.3,0.5-0.7,0.7-1.1,0.8c-0.3,0.1-0.4-0.1-0.5-0.3
			c-0.6-1.1-1.3-2.1-2-3.2c-0.1-0.2-0.3-0.4-0.4-0.7c-0.4,0.3-0.9,0.6-1.3,0.8c-0.4,0.2-0.5,0.2-0.7-0.2c-0.3-0.4-0.3-0.6,0.1-0.8
			c1.3-0.8,2.6-1.7,4-2.5c0.4-0.2,0.5-0.2,0.8,0.2c0.2,0.4,0.2,0.5-0.2,0.8C30.7,9.8,30.3,10,29.8,10.3z"/>
		<path class="st0" d="M10.5,75.9c0.1-0.3,0.3-0.4,0.5-0.5c0.4-0.2,0.5-0.1,0.7,0.2c0.2,0.4,0.5,0.9,0.7,1.3c0.2,0,0.4-0.1,0.5-0.2
			c1.1-0.6,2.2-1.3,3.4-1.9c0.4-0.2,0.5-0.2,0.8,0.2c0.6,0.9,0.6,1-0.3,1.5c-1,0.6-2,1.1-3,1.7c-0.1,0.1-0.3,0.1-0.4,0.3
			c0.2,0.4,0.5,0.8,0.7,1.3c0.1,0.2,0.2,0.4,0,0.6c-0.2,0.2-0.5,0.4-0.8,0.3c-0.1,0-0.2-0.2-0.2-0.3C12.1,78.9,11.3,77.4,10.5,75.9z
			"/>
		<path class="st0" d="M69.9,5.5c-0.5-0.2-0.9-0.3-1.4-0.5c-0.4-0.1-0.4-0.3-0.3-0.7c0.1-0.5,0.3-0.5,0.7-0.4c1.5,0.5,3,1,4.5,1.5
			c0.4,0.1,0.4,0.3,0.3,0.7c-0.1,0.4-0.3,0.5-0.7,0.4c-0.5-0.1-0.9-0.3-1.4-0.5c-0.2,0.2-0.2,0.4-0.3,0.6c-0.4,1.2-0.8,2.4-1.2,3.6
			c-0.2,0.5-0.2,0.5-0.7,0.4c-0.1,0-0.1,0-0.2-0.1c-0.8-0.2-0.8-0.3-0.6-1.1c0.4-1.2,0.8-2.4,1.2-3.6C69.9,5.8,70,5.7,69.9,5.5z"/>
		<path class="st0" d="M102.2,65.6c0.1-0.4,0.2-0.9,0.4-1.3c0.1-0.2,0.1-0.5,0.4-0.5c0.3,0,0.6,0.1,0.8,0.3c0.1,0.1,0,0.2,0,0.4
			c-0.4,1.5-0.8,3.1-1.2,4.6c-0.1,0.4-0.3,0.5-0.7,0.4c-0.5-0.1-0.6-0.3-0.5-0.7c0.1-0.5,0.2-1,0.4-1.5c-0.7-0.2-1.4-0.4-2.1-0.6
			c-0.8-0.2-1.5-0.4-2.3-0.6c-0.4-0.1-0.4-0.2-0.4-0.6c0,0,0,0,0-0.1c0.1-0.3,0.1-0.7,0.4-1c0.3-0.3,0.6,0,0.9,0.1
			c1.2,0.3,2.3,0.6,3.5,0.9C101.9,65.6,102,65.6,102.2,65.6z"/>
		<path class="st1" d="M61.5,99.2c0,1.2,0,2.3,0,3.5c0.1,1.1-0.7,1.8-1.7,1.8c-1.7-0.1-3.4-0.2-5-0.3c-0.7,0-1.3,0-2,0
			c-1.4,0-2-0.7-2-2.1c0-1,0.1-1.9,0.1-2.9c0-1.2,0-2.3-0.1-3.5c0-0.2,0-0.3,0-0.5c0.1-0.9,0.7-1.5,1.6-1.4c1,0.1,2,0.1,3,0.2
			c0.5,0,1.1,0,1.6,0c1-0.1,2.1-0.1,3.1-0.1c0.9,0,1.6,0.8,1.6,1.7c0,0.7,0,1.3,0,2C61.4,98,61.4,98.6,61.5,99.2
			C61.5,99.2,61.5,99.2,61.5,99.2z"/>
		<path class="st2" d="M43.5,98.3c0,1.2,0.1,2.4,0.1,3.6c0,0.4-0.1,0.8-0.4,1.2c-0.3,0.4-0.7,0.5-1.2,0.5c-1.5-0.2-3.1-0.4-4.6-0.6
			c-1-0.1-1.9-0.2-2.9-0.3c-1.1-0.1-1.7-0.8-1.7-1.9c0.1-2.3,0.1-4.5,0-6.8c0-0.7,0.3-1.1,0.8-1.4c0.4-0.2,0.9-0.3,1.4-0.2
			c2,0.3,4,0.4,6.1,0.4c0.3,0,0.5,0,0.8,0c1.1-0.1,1.8,0.9,1.8,1.9c0,0.8-0.1,1.6-0.1,2.4C43.5,97.5,43.5,97.9,43.5,98.3z"/>
		<path class="st3" d="M45.5,86.2c0.8-1.4,0.6-2.7-0.2-3.9c0.5-1.1,0.4-1.4-0.2-3.2c0.2-0.2,0.5-0.2,0.8-0.2
			c2.4,0.3,4.8,0.2,7.2,0.1c0.4,0,0.8,0,1.2,0.3c-1.5,1.4-1.6,3-0.7,4.8c-0.7,0.8-0.9,1.7-0.6,2.7c0.3,1,0.8,1.7,1.8,2.3
			c-0.3,0.5-0.7,0.7-1.2,0.7c-0.7,0-1.3-0.1-2-0.1c-1.7-0.1-3.5-0.2-5.2-0.2c-0.3,0-0.6,0-1-0.2c0.3-0.5,0.6-0.9,0.7-1.5
			C45.9,87.1,45.8,86.6,45.5,86.2z"/>
		<path class="st4" d="M49.9,92.6c-0.1,1.1,0,2.2-0.1,3.3c-0.1,1.4,0,2.8-0.1,4.1c0,0.6-0.1,0.7-0.6,0.9c-1.3,0.5-2.5,1-3.7,1.8
			c-0.5,0.3-0.8,0.2-0.9-0.4c0,0,0-0.1,0-0.1c0.2-1.2,0-2.4,0.2-3.5c0-0.3,0.1-0.6,0-0.9c-0.1-0.6-0.1-1.1-0.1-1.7
			c0-0.4,0-0.8-0.1-1.2c-0.1-0.5,0-1,0.2-1.5c0.2-0.4,0.5-0.6,0.9-0.7c0.7-0.2,1.5-0.4,2.2-0.7c0.4-0.1,0.9-0.3,1.3-0.5
			c0.5-0.3,1-0.1,0.9,0.6C49.9,92.4,49.9,92.5,49.9,92.6z"/>
		<path class="st5" d="M62.5,103.1c0.2-2.2,0.1-4.4,0.1-6.6c0-0.5-0.1-1-0.1-1.4c0-0.9,0.3-1.4,1.1-1.7c0.4-0.1,0.8-0.2,1.2-0.4
			c0.5-0.2,1-0.4,1.4-0.6c0.4-0.2,0.7-0.1,0.8,0.3c0.1,0.2,0,0.4,0,0.6c-0.1,1.6-0.1,3.2,0,4.8c0.1,0.9,0.1,1.8,0.1,2.8
			c0,0.6-0.3,1.1-0.9,1.4c-1,0.4-2,0.9-2.8,1.6c-0.1,0-0.1,0.1-0.2,0.1c-0.3,0.2-0.6,0-0.7-0.3C62.5,103.4,62.5,103.2,62.5,103.1z"
			/>
		<path class="st1" d="M66.1,91.5c-0.1,0.2-0.3,0.3-0.5,0.3c-0.5,0.1-1,0.3-1.5,0.4c-0.5,0.1-1,0.3-1.5,0.5
			c-0.5,0.2-1.1,0.3-1.7,0.3c-1-0.1-2.1-0.1-3.1-0.1c-1.5,0-3,0-4.5-0.1c-0.3,0-0.6-0.1-0.9-0.1c-0.1,0-0.2,0-0.3-0.2
			c0.1-0.2,0.3-0.2,0.5-0.3c0.5-0.1,1-0.2,1.5-0.3c0.5-0.1,1.1-0.2,1.6-0.4c0.6-0.2,1.2-0.2,1.8-0.2c1.3,0,2.5,0,3.8,0
			c0.8,0,1.6-0.1,2.4-0.1c0.6,0,1.3,0,1.9,0.1C65.8,91.2,66,91.2,66.1,91.5z"/>
		<path class="st2" d="M48.3,90.6c-0.1,0.3-0.3,0.3-0.5,0.4c-0.5,0.2-0.9,0.3-1.4,0.4c-0.7,0.1-1.3,0.3-1.9,0.5
			c-0.6,0.2-1.2,0.2-1.9,0.1c-1.4-0.2-2.8-0.3-4.2-0.4c-1-0.1-2-0.1-3-0.1c-0.2,0-0.5,0-0.7-0.2c0.2-0.3,0.5-0.4,0.8-0.4
			c0.5-0.1,1.1-0.2,1.6-0.3c0.4-0.1,0.8-0.1,1.1-0.2c1-0.3,2.1-0.4,3.1-0.3c1.1,0.1,2.1,0.1,3.2,0.2c1,0.1,2,0.1,3,0.1
			C47.9,90.5,48.1,90.5,48.3,90.6z"/>
		<path class="st3" d="M58.5,76.7c0,0.2-0.2,0.3-0.4,0.3c-0.4,0.1-0.8,0.2-1.3,0.3c-0.6,0.2-1.2,0.3-1.8,0.6
			c-0.5,0.2-1.1,0.3-1.6,0.2c-1.1-0.1-2.2-0.1-3.3-0.1c-1.4,0-2.8,0-4.2-0.1c-0.4,0-0.8,0-1.1-0.2c0.1-0.2,0.3-0.2,0.5-0.3
			c0.5-0.1,1.1-0.2,1.6-0.3c0.4-0.1,0.7-0.1,1.1-0.3c0.8-0.4,1.7-0.4,2.6-0.4c1.4,0.1,2.8,0,4.2-0.1c1.1-0.1,2.2,0,3.3,0.1
			C58.3,76.5,58.3,76.5,58.5,76.7z"/>
		<path class="st0" d="M44.4,59.5c0.1-0.4,0.5-0.7,0.8-0.8c0.8-0.3,1-0.7,0.9-1.5c-0.1-1,0.1-1.9,0.4-2.9c0.2-0.5,0.4-1,0.7-1.4
			c0.5-0.7,1.2-1,2-1.1c2.1-0.1,3.7,0.8,4.8,2.6c1,1.6,1.3,3.2,1,5.1c-0.1,0.8-0.5,1.6-1,2.2c-0.1,0.1-0.2,0.2-0.3,0.3
			c0,0,0,0,0,0.1c0.5,0.2,1,0.3,1.4,0.5c0.2,0.1,0.4,0.2,0.5,0.3c0.1,0.2,0.2,0.4,0.1,0.7c-0.1,0.2-0.4,0.3-0.6,0.3
			c-0.1,0-0.3-0.1-0.4-0.1c-2-0.8-3.9-0.7-5.8,0.3c-0.1,0.1-0.3,0.1-0.4,0.2c-0.3,0.1-0.5,0-0.6-0.2c-0.1-0.2-0.1-0.5,0.1-0.7
			c0.1-0.2,0.3-0.2,0.5-0.3c0.3-0.2,0.6-0.3,1-0.5c-0.5-0.3-1-0.7-1.4-1.1c-0.4-0.5-0.6-1.1-0.9-1.7C46.1,60.1,45.2,60.2,44.4,59.5z
			 M47,57.8c1.2-0.5,2.3-0.9,3.5-1.3c0.5-0.2,1.1-0.5,1.5-0.8c0.2-0.2,0.5-0.4,0.6-0.7c0-0.1,0-0.1-0.1-0.1c0,0-0.1-0.1-0.1-0.1
			c-1.1-1-2.4-1.4-3.8-1.3c-0.6,0.1-1.1,0.4-1.4,0.9C46.7,55.5,46.7,56.6,47,57.8z M52,58.7c0.8,0.8,0.9,1.7,0.6,2.7
			c0.6-0.1,1-0.5,1.2-1.1c0.3-1.2,0.1-2.4-0.4-3.6c-0.5,0.5-1.1,0.7-1.7,0.9c-0.3,0.1-0.5,0.3-0.7,0.5c-0.2,0.1-0.2,0.3-0.2,0.5
			c0,0.4,0.2,0.9,0.6,1.1c0.3,0.2,0.7,0,0.7-0.4C52,59.1,52,58.9,52,58.7z"/>
		<path class="st0" d="M53.9,52.1c-0.2,0-0.4-0.2-0.6-0.3c-1-0.5-1.9-1.1-3-1.4c-0.5-0.2-1-0.3-1.5-0.3c-1,0-1.9,0.4-2.5,1.2
			c-0.2,0.3-0.4,0.6-0.6,1c-0.1,0.2-0.3,0.4-0.6,0.4c-0.4,0-0.5-0.2-0.4-0.6c0.2-1,0.6-1.9,1.2-2.7c0.8-1,1.9-1.3,3.1-1.1
			c0.7,0.1,1.4,0.4,2.1,0.8c0.9,0.5,1.8,1.2,2.6,1.9c0.2,0.1,0.3,0.3,0.4,0.5C54.2,51.7,54.2,51.8,53.9,52.1z"/>
		<path class="st0" d="M74.1,33.9c0,0,0,0.2-0.1,0.1C74,34,74,33.9,74.1,33.9C74.1,33.9,74.1,33.9,74.1,33.9z"/>
		<path class="st0" d="M79,37.5c0,0-0.1,0.1-0.1,0.1C78.9,37.5,78.9,37.5,79,37.5C79,37.4,79,37.5,79,37.5z"/>
		<path class="st0" d="M81.1,45.5c0.1,0,0.1-0.1,0.2,0C81.3,45.5,81.2,45.5,81.1,45.5C81.2,45.5,81.1,45.5,81.1,45.5z"/>
		<path class="st0" d="M85.1,65.2c0,0-0.1-0.1,0-0.1C85.2,65,85.2,65.1,85.1,65.2C85.2,65.2,85.2,65.2,85.1,65.2z"/>
		<path class="st0" d="M80.3,39.8C80.3,39.8,80.3,39.7,80.3,39.8C80.4,39.8,80.4,39.9,80.3,39.8C80.3,39.9,80.3,39.9,80.3,39.8z"/>
		<path class="st0" d="M78.8,93.2c0.2,1.9,0.1,3.7-0.9,5.4c-0.7,1.3-1.8,2-3.3,2c-0.6,0-1.1-0.2-1.4-0.8c-0.3-0.5-0.1-1.1,0.2-1.6
			c0.2-0.3,0.5-0.6,0.8-0.8c1.6-1.2,3.2-2.5,4.5-4.1C78.7,93.2,78.7,93.2,78.8,93.2z"/>
	</g>
</g>
</svg>
